# xmcd CD database file
#
# Track frame offsets:
#	150
#	29242
#	43590
#	44406
#	53229
#	67266
#	68885
#	75773
#	86731
#	96685
#	98537
#	107332
#	131017
#	144423
#	157827
#	175591
#	196771
#
# Disc length: 2802 seconds
#
# Revision: 0
# Processed by: cddbd v1.5.1PL2 Copyright (c) Steve Scherf et al.
# Submitted via: CDex 1.51
#
DISCID=e20af011
DTITLE=大江戸宅急便 - まっくじゃぁぁん！
DYEAR=2002
DGENRE=Vocal
TTITLE0=(映像) PC-DATA
TTITLE1=島村秀行 唄:島村秀行とコーラスダーズ - まっくじゃぁぁん！
TTITLE2=島村秀行 - ご挨拶
TTITLE3=島村秀行 編曲・演奏:溝口ゆうま - あいつはそろそろ25歳
TTITLE4=島村秀行 - 制服
TTITLE5=島村秀行 - 僕らの宅急便
TTITLE6=島村秀行 唄:島村秀行と多摩川ニャノレーズ
TTITLE7=島村秀行 - お元気ですか? -水村2002-
TTITLE8=島村秀行 編曲・演奏:溝口ゆうま - 興津
TTITLE9=島村秀行 - 昭和記念公園恋唄
TTITLE10=ねこるる 唄:島村秀行 - ねこるる萎え　なこるる萌え
TTITLE11=島村秀行 編曲:ぶひぴ 唄:服部みぃと島村秀行 - マックブオン
TTITLE12=島村秀行 - 可憐駄
TTITLE13=島村秀行 - 可憐駄（怖いおにぃたんバージョン）
TTITLE14=島村秀行 - ぴぽっ！うぃぃん！ 第3.5章
TTITLE15=島村秀行 - 発表とご注意
TTITLE16=ぶひぴ - ご挨拶
EXTD=YEAR: 2002
EXTT0=
EXTT1=
EXTT2=
EXTT3=
EXTT4=
EXTT5=
EXTT6=
EXTT7=
EXTT8=
EXTT9=
EXTT10=
EXTT11=
EXTT12=
EXTT13=
EXTT14=
EXTT15=
EXTT16=
PLAYORDER=
